<?xml version="1.0" standalone="no"?>
<!DOCTYPE svg PUBLIC "-//W3C//DTD SVG 20010904//EN"
 "http://www.w3.org/TR/2001/REC-SVG-20010904/DTD/svg10.dtd">
<svg version="1.0" xmlns="http://www.w3.org/2000/svg"
 width="1280.000000pt" height="1280.000000pt" viewBox="0 0 1280.000000 1280.000000"
 preserveAspectRatio="xMidYMid meet">
<metadata>
Created by potrace 1.11, written by Peter Selinger 2001-2013
</metadata>
<g transform="translate(0.000000,1280.000000) scale(0.100000,-0.100000)"
fill="#000000" stroke="none">
<path d="M1689 9468 c-1 -4 -6 -127 -13 -328 -4 -96 -8 -227 -11 -290 -4 -106
-6 -175 -20 -570 -10 -278 -15 -429 -20 -560 -3 -74 -7 -202 -10 -285 -5 -161
-13 -387 -20 -580 -3 -66 -7 -187 -10 -270 -3 -82 -7 -213 -10 -290 -3 -77 -7
-207 -10 -290 -3 -82 -7 -202 -10 -265 -2 -63 -7 -189 -10 -280 -3 -91 -7
-223 -10 -295 -6 -162 -14 -373 -20 -575 -3 -85 -7 -211 -10 -280 -2 -69 -7
-195 -10 -280 -3 -85 -7 -217 -10 -292 -3 -76 -2 -138 2 -139 18 -2 130 -7
318 -14 110 -4 238 -8 285 -10 47 -2 164 -6 260 -10 269 -9 403 -14 545 -20
72 -3 191 -7 265 -10 310 -11 412 -15 545 -20 77 -3 194 -7 260 -10 66 -3 194
-7 285 -10 91 -3 210 -8 265 -10 55 -2 172 -7 260 -10 88 -3 210 -8 270 -10
61 -2 182 -7 270 -10 151 -5 239 -8 528 -20 67 -3 190 -7 272 -10 83 -3 206
-7 275 -10 69 -3 193 -7 275 -10 154 -5 314 -11 535 -20 69 -2 195 -7 280 -10
85 -3 205 -8 265 -10 61 -3 180 -7 265 -10 147 -5 226 -8 540 -20 74 -3 194
-8 265 -10 279 -10 435 -15 545 -20 63 -3 187 -7 275 -10 88 -3 212 -7 275
-10 63 -3 185 -8 270 -10 85 -3 202 -7 260 -10 58 -2 186 -7 285 -11 l180 -6
-35 37 c-72 76 -257 275 -344 369 -14 16 -47 51 -71 77 l-45 48 -162 6 c-90 3
-215 8 -278 10 -135 6 -327 13 -530 20 -247 8 -460 16 -570 21 -58 2 -166 6
-240 9 -331 12 -433 16 -545 20 -66 3 -181 7 -255 10 -247 9 -414 15 -555 20
-77 3 -192 8 -255 10 -63 2 -189 7 -280 10 -91 3 -208 8 -260 10 -52 2 -174 6
-270 10 -96 3 -227 8 -290 10 -63 2 -182 7 -265 10 -82 3 -199 8 -260 10 -60
3 -180 7 -265 10 -213 7 -389 14 -560 20 -80 3 -199 8 -265 10 -223 8 -429 16
-540 20 -60 2 -182 7 -270 10 -88 3 -203 8 -255 10 -52 2 -180 7 -285 10 -104
4 -224 8 -265 10 -41 2 -167 6 -280 10 -113 4 -230 9 -260 10 -30 2 -76 4
-101 4 l-46 1 2 63 c2 34 6 143 9 242 4 99 9 225 11 280 4 101 11 292 20 530
3 72 7 189 10 260 5 127 9 244 20 535 13 351 15 412 20 540 3 74 7 189 10 255
2 66 7 190 10 275 3 85 8 196 10 245 2 50 6 176 10 280 3 105 8 224 10 265 2
41 7 158 10 260 3 102 8 223 10 270 2 47 7 168 11 270 3 102 7 196 8 210 1 23
5 25 46 24 93 -3 489 -15 575 -19 50 -2 176 -6 280 -10 105 -3 231 -8 280 -10
50 -3 164 -7 255 -10 91 -3 221 -7 290 -10 178 -7 392 -15 560 -20 80 -3 204
-7 275 -10 72 -3 191 -7 265 -10 238 -8 432 -15 560 -20 69 -3 190 -7 270 -10
80 -3 204 -7 275 -10 243 -9 410 -15 565 -20 85 -3 209 -7 275 -10 204 -8 384
-15 535 -20 80 -2 210 -7 290 -10 80 -3 204 -8 275 -10 72 -3 193 -7 270 -10
77 -3 205 -7 285 -10 80 -3 199 -8 265 -10 66 -3 190 -7 275 -10 402 -14 696
-24 835 -30 66 -3 190 -7 275 -10 85 -3 200 -8 255 -10 55 -2 181 -7 280 -10
178 -7 290 -12 311 -14 6 -1 10 -17 8 -38 -1 -21 -5 -117 -8 -213 -3 -96 -8
-229 -11 -295 -2 -66 -7 -196 -10 -290 -3 -93 -8 -213 -10 -265 -2 -52 -7
-178 -10 -280 -3 -102 -8 -230 -10 -285 -2 -55 -7 -179 -10 -275 -6 -174 -9
-247 -19 -560 -4 -91 -8 -219 -11 -285 -3 -66 -7 -187 -10 -270 -7 -220 -15
-436 -20 -555 -2 -58 -7 -195 -11 -305 -3 -110 -7 -222 -9 -249 -2 -53 -4 -50
110 -172 137 -145 350 -377 362 -393 7 -9 13 -11 14 -6 4 31 8 100 14 280 3
110 8 245 10 300 2 55 6 181 10 280 3 99 8 232 10 295 4 106 8 201 20 555 2
72 7 193 9 270 3 77 8 210 11 295 3 85 7 214 10 285 3 72 7 198 10 280 3 83 7
209 10 280 3 72 7 198 10 280 3 83 7 213 10 290 3 77 8 203 10 280 3 77 7 196
10 265 2 69 7 206 10 305 3 99 8 225 10 280 2 55 7 179 10 275 l6 175 -48 1
c-46 0 -362 12 -508 19 -38 2 -158 6 -265 9 -202 7 -337 12 -575 21 -77 3
-198 8 -270 10 -127 5 -292 11 -525 20 -63 3 -189 7 -280 10 -91 3 -210 8
-265 10 -55 2 -174 7 -265 10 -210 7 -544 20 -810 30 -69 3 -186 7 -260 10
-249 8 -464 16 -565 20 -55 2 -174 6 -265 10 -91 3 -214 7 -275 10 -60 2 -184
7 -275 10 -91 4 -205 8 -255 10 -49 2 -171 6 -270 9 -99 4 -227 9 -285 11 -58
2 -175 7 -260 10 -148 5 -271 10 -535 20 -66 3 -187 7 -270 10 -82 2 -208 7
-280 10 -188 7 -379 14 -550 20 -82 3 -206 7 -275 10 -116 5 -185 7 -520 20
-69 2 -197 7 -285 10 -88 3 -208 8 -267 10 -268 11 -448 16 -449 13z"/>
<path d="M3199 7591 c-1 -4 -2 -109 -3 -236 -1 -207 1 -231 17 -244 9 -9 17
-21 17 -27 0 -6 6 -17 14 -23 11 -9 17 -8 29 3 8 9 17 21 19 28 6 16 51 -12
72 -45 22 -32 25 -64 32 -257 3 -99 10 -180 16 -187 6 -7 19 -13 29 -13 20 0
54 44 45 58 -3 5 -6 83 -8 173 -2 122 1 164 10 165 7 1 16 2 22 3 5 0 16 16
24 34 20 49 74 79 154 85 l67 4 0 -1011 0 -1011 250 2 249 3 0 1008 0 1007
308 0 308 0 0 243 0 243 -835 0 c-459 0 -835 -2 -836 -5z"/>
<path d="M5591 7565 c-11 -35 -51 -190 -56 -214 -2 -9 -26 -102 -55 -208 -28
-106 -53 -201 -56 -213 -9 -41 -13 -60 -73 -285 -34 -126 -72 -273 -86 -325
-14 -52 -39 -147 -56 -210 -17 -63 -33 -123 -35 -132 -9 -38 -14 -57 -44 -173
-18 -66 -33 -127 -35 -135 -2 -8 -20 -76 -39 -150 -77 -287 -107 -412 -103
-416 5 -6 509 -6 514 0 2 2 33 113 68 247 35 134 70 264 78 289 l13 44 434 0
435 1 33 -125 c18 -69 34 -132 36 -140 13 -54 68 -261 77 -287 6 -18 17 -33
25 -33 7 0 20 -13 29 -30 12 -23 22 -30 45 -30 45 0 73 -18 102 -65 19 -32 34
-44 54 -47 32 -4 30 4 39 -175 3 -76 10 -142 14 -146 5 -5 19 -7 32 -5 l24 3
0 181 c1 151 3 185 17 206 24 36 66 45 85 18 11 -16 18 -18 33 -10 11 6 19 14
18 18 -1 4 3 17 10 28 12 23 15 12 -54 273 -20 73 -37 140 -39 150 -3 9 -18
68 -35 131 -17 63 -32 123 -35 132 -2 9 -20 79 -40 155 -38 142 -55 208 -105
398 -43 165 -78 297 -111 424 -17 63 -32 121 -34 130 -2 9 -36 135 -75 281
-38 146 -72 276 -75 290 -2 14 -15 61 -28 105 l-23 80 -457 0 -457 0 -9 -30z
m529 -451 c0 -3 16 -67 36 -142 20 -75 38 -144 39 -152 4 -16 67 -256 86 -325
21 -78 84 -320 92 -355 l6 -26 -319 0 c-176 0 -320 4 -320 8 0 5 14 60 30 123
17 63 44 168 61 233 61 237 141 538 155 590 l15 52 60 0 c32 0 59 -3 59 -6z"/>
<path d="M7825 7523 c-38 -37 -149 -142 -245 -234 l-175 -167 0 -777 1 -778
149 -144 c83 -80 196 -188 252 -241 l102 -96 413 -3 413 -3 47 42 c58 54 277
260 378 355 l76 73 -1 420 c-1 231 -5 423 -9 427 -7 7 -831 12 -853 5 -10 -3
-13 -56 -13 -218 0 -179 3 -219 16 -239 16 -25 44 -24 44 1 0 21 16 17 45 -11
21 -22 25 -35 25 -86 0 -45 4 -61 16 -66 23 -9 36 11 37 56 1 26 5 41 13 41 7
0 25 15 39 34 16 21 42 40 68 48 72 24 74 21 71 -93 l-2 -101 -38 -36 c-22
-19 -69 -64 -106 -99 l-66 -63 -199 0 -198 0 -108 103 -108 102 0 569 0 569
30 26 c16 14 65 61 109 103 l80 77 194 0 193 1 117 -113 116 -112 -1 -108 c-1
-61 2 -111 7 -115 6 -3 117 -6 248 -6 l238 -1 1 125 c0 69 0 172 0 230 l0 105
-113 107 c-62 58 -171 163 -243 232 l-130 125 -430 0 -430 0 -70 -66z"/>
<path d="M9433 5334 c0 -129 3 -234 6 -235 3 -1 27 -2 52 -4 67 -5 116 -29
140 -70 20 -33 29 -39 54 -36 6 0 11 -20 11 -48 1 -63 9 -81 32 -81 30 0 39
20 41 90 3 84 5 91 44 118 32 22 32 22 41 2 11 -25 44 -26 53 -2 4 9 11 20 17
24 7 4 11 83 11 240 l-1 233 -250 1 -251 1 0 -233z"/>
</g>
</svg>
