<?xml version="1.0" encoding="utf-8"?>
<!-- Generator: Adobe Illustrator 24.2.1, SVG Export Plug-In . SVG Version: 6.00 Build 0)  -->
<svg version="1.1" id="Warstwa_1" xmlns="http://www.w3.org/2000/svg" xmlns:xlink="http://www.w3.org/1999/xlink" x="0px" y="0px"
	 viewBox="0 0 1125 2436" style="enable-background:new 0 0 1125 2436;" xml:space="preserve">
<style type="text/css">
	.st0{clip-path:url(#SVGID_2_);}
	.st1{fill:#FEC300;}
	.st2{clip-path:url(#SVGID_2_);fill:#FEC300;}
</style>
<g>
	<rect x="-0.2" y="0" width="1125.2" height="2436"/>
</g>
<g>
	<defs>
		<rect id="SVGID_1_" y="0" width="1125" height="2436"/>
	</defs>
	<clipPath id="SVGID_2_">
		<use xlink:href="#SVGID_1_"  style="overflow:visible;"/>
	</clipPath>
	<g class="st0">
		<path class="st1" d="M513.4,921.8L513.4,921.8L513.4,921.8C513.4,921.8,513.4,921.8,513.4,921.8z"/>
	</g>
	<polygon class="st2" points="0,2436 0,2436 0,0 982,0 	"/>
	<g class="st0">
		<path class="st1" d="M1320.8,37.2c-0.9,5.4-3.9,11.2-9,17.2c-14,16.4-43.7,33.2-73.1,33.6c-11.7,0.2-20.4-2.4-30.4-5.4
			c-10.2-3-21.7-6.5-40.3-8.6c-32.5-3.7-40.8-4.2-47.9-1c-0.5,0.2-1,0.5-1.6,0.7c-12.8,6.4-21,19.3-22.1,33.5
			c-6.8,89.1-1.4,154.9,0.1,166.9c0,0.3,3.8,31.9-4.5,70.5c-4.4,20.3-9.3,43.1-25.5,49.3c-4.3,1.7-8.8,2.2-13.4,1.4
			c-9.2-1.5-18.5-8.3-24.2-17.8c-10.4-17.3-6.2-39.6-1.3-65.4l0.1-0.3c11.2-58.9,18.2-88.1,19.3-96.3c1.9-14.9,10-42.5,8-75.5
			c-0.5-9.1-6-31-9.3-38.9c-5.6-13.4-23.8-10.4-29.7-5.1c-10,9-15,22.9-16,34c-0.9,10.1-1.6,34.5-4,49c-1.8,10.6-13.9,18-23.9,22.4
			c-16.8,7.4-31.3,19-42,33.9c-6.8,9.5-14.3,21.2-23.7,36C867.8,331.7,837.1,405.7,816,480l-6.3,26.4l0-0.1c0,0,0,0.1,0,0.1l0,0
			C764,728,754,852,779.7,1025.8c0.2,1.3,3.6,31.8-4.4,69.3c-4.2,19.3-8.8,41.1-23.1,46.6c-3.9,1.5-7.7,1.8-11.4,1.2
			c-9-1.5-17-8.4-21.6-16c-9.7-16-5.6-37.7-0.8-62.9c11.2-59,9.9-84.4,9.7-99c-1-53,2-165-3.7-196.8l-1.4-14.2
			c-0.8-8.5-2.3-10.4-3.7-11.3c-2.5-1.5-6.5-0.6-9.1,0.7c-8.7,3.8-10.6,16.6-14.2,39.8c-1.7,11.1-3.9,24.9-7.3,41.2
			c-6.6,31-12.5,45.2-16.4,53.2c-8.2,17-17.1,28.2-22.3,34.9l-1.5,1.9c-41.8,53.6-50.4,133.1-53.1,159.3
			c-3.7,34.5-5.6,51.8-3.9,68.6c0.4,4,0.9,7.8,1.4,11.6c2,15.6,3.8,29.2-3.2,45.1c-2.8,6.5-13.2,27.4-27.7,25.8
			c-10.1-1.1-19-13.3-20.1-23.6c-0.3-3.2,0.1-5.8,0.5-8.1c0.4-2.8,0.8-5.2,0-8.9c-0.6-2.4-1.5-4.7-2.3-6.4
			c-3.8,6.8-15.1,21.3-37.6,113.1c-0.2,0.7-0.3,1.4-0.4,2.1l-1.5,9.4C488,1355,475.7,1459.7,470,1487c-0.9,4.4-3.1,79.3-4,83
			c-2.8,12.2,7.1,42.5,6.8,57.3c-0.2,7,0.1,12.9,0.4,18.1c0.6,11.5,1,20.6-4.5,29.4c-6.1,9.8-16.8,15.3-26.6,13.7l-0.1,0
			c-12.9-2.1-18.7-15.5-20.7-21.1c-4-11.7-3.2-26.2,2.5-43l0.1-0.3c9.4-28,0-52.8,3-82.3c0.5-4.8-1.5-16.9-2-24.8
			c-0.3-4-1.2-7.9-2.7-11.6l-3.3-7.6c-4-5-8.5-3.5-11-1c-1,1-2.5,2.2-4,3.2c-16.2,11-49,91.3-64.1,169.5l-0.3,1.3
			c-7.2,37.1-10.7,55.6-11.7,71.2c-0.4,6-0.6,11.9-0.7,17.6c-0.7,21.2-1.4,41.3-10.6,66.7c-8.4,23.1-17,34.1-26.3,33.8
			c-5.6-0.2-8.5-4.4-10.8-7.7c-2-2.8-3.3-4.5-5.1-4.8c-1.8-0.3-7,0.5-16.3,14.5l-5.7,8.6c-43.1,179.9-62.5,291.9-57.5,333
			c5.2,42.2,9.2,63.2,12.6,85.3c3,19.5-8.8,41.1-23.1,46.6c-3.9,1.5-7.7,1.8-11.4,1.2c-9.1-1.5-17-8.4-21.6-16
			c-9.6-16.1-5.5-37.8-0.8-62.9c4-21.2-1-55.6-3.9-70.4c-0.8-3.9-2-7.7-3.7-11.2l0,0c-0.9-2-1.9-2.9-2.4-3.1
			c-3.1-1-10.8,4.9-29.7,37.7c-31.6,54.9-67.5,117.3-47.2,163.9c0.5,1.1,1,2.3,1.6,3.5c4,8.6,10,21.6,7.3,37.5
			c-2.5,14.3-11.3,28-22,34.3c-8.2,4.8-17.8,5.6-27.7,4c-31.8-5.2-66.9-35.3-68.8-37c-40.5-35.1-65.6-91-72.7-161.7
			c-31.4-315.4-30.9-616.2,1.5-894.2c25.9-222.4,72.2-430.8,137.6-619.3c111.4-321.2,241.5-475.6,242.8-477.1
			c58.8-68.7,132-154.3,220.1-224C587.9-42,687.4-81.9,787.6-81c41.4,0.4,71.6,7.7,117.2,18.9c40.2,9.8,90.1,22,169.7,35.3
			c-0.2,1.2-0.4,2.5-0.6,3.7l7.4,1.2c7.2,1.2,14.6,2.4,22.3,3.5c1.2,0.2,2.4,0.4,3.7,0.6c1.2,0.2,2.5,0.4,3.7,0.6l0.6-3.7
			c24.2,3.7,50.2,7.3,77.3,10.7l8,1c59.1,7.5,120.3,15.2,123.9,40.8C1321.2,33.4,1321.2,35.3,1320.8,37.2z"/>
	</g>
</g>
</svg>
