<?xml version="1.0" encoding="utf-8"?>
<!-- Generator: Adobe Illustrator 24.2.1, SVG Export Plug-In . SVG Version: 6.00 Build 0)  -->
<svg version="1.1" id="Warstwa_1" xmlns="http://www.w3.org/2000/svg" xmlns:xlink="http://www.w3.org/1999/xlink" x="0px" y="0px"
	 viewBox="0 0 1366 768" style="enable-background:new 0 0 1366 768;" xml:space="preserve">
<style type="text/css">
	.st0{clip-path:url(#SVGID_2_);}
	.st1{clip-path:url(#SVGID_2_);fill:#FEC300;stroke:#FEC300;stroke-width:3.0576;stroke-miterlimit:10;}
	.st2{fill:#FEC300;}
	.st3{clip-path:url(#SVGID_2_);fill:#FEC300;}
	.st4{clip-path:url(#SVGID_2_);fill:none;}
</style>
<g>
	<defs>
		<rect id="SVGID_1_" x="0.5" y="-0.5" width="1366" height="768"/>
	</defs>
	<clipPath id="SVGID_2_">
		<use xlink:href="#SVGID_1_"  style="overflow:visible;"/>
	</clipPath>
	<g class="st0">
		<rect x="1.2" y="0.7" width="1364.6" height="770.1"/>
	</g>
	<path class="st1" d="M1311.3-31.7c3.3,121.2,2.1,162.4,0,175.3c-1.7,10.8-1.2,17,0,29.2c1.1,11.4,2.8,15.4,5.4,17.2
		c3.3,2.3,7.9,1.1,10.9-1.7c4.2-4,4.8-11,5.4-22.3c1.1-19.1,1.6-28.7,1.4-32.7c-1.3-20.4-0.6-91.8,1.4-197.7
		C1327.6-53.4,1319.4-42.6,1311.3-31.7z"/>
	<g class="st0">
		<path class="st2" d="M831.6-13v1.2c-0.5,0-0.9,0-1.4,0c-3,0-5.9,0-8.7,0h-1.4c0-0.4,0-0.8,0-1.2h1.4c2.8,0,5.7,0,8.7,0h0
			C830.7-13,831.1-13,831.6-13L831.6-13z"/>
		<path class="st2" d="M821.5-12.9h-2.9c0,0.4,0,0.8,0,1.2h2.9C821.5-12.2,821.5-12.6,821.5-12.9z M831.6-13L831.6-13
			c-0.5,0-1,0-1.4,0v1.2c0.5,0,0.9,0,1.4,0c0.5,0,1,0,1.4,0V-13L831.6-13z"/>
	</g>
	<g class="st0">
		<path class="st2" d="M751.4,160.5L751.4,160.5L751.4,160.5C751.4,160.5,751.4,160.5,751.4,160.5z"/>
	</g>
	<path class="st1" d="M1255.6-97c5,72.1,3.8,105.4,1.4,122c-0.5,3.2-0.8,15.3-1.4,39.5c-0.3,10.7-0.4,18.8,4.1,24.1
		c2.8,3.4,7.9,6,12.2,3.4c4.7-2.7,5.1-11.6,5.4-18.9c0.8-15.5-2.7-27.4-2.7-27.5c-3.8-12.9-5.5-48.1,1.4-140.9
		C1269.2-95.8,1262.4-96.4,1255.6-97z"/>
	<polygon class="st3" points="535.6,770.8 -35.4,770.4 -35.4,0.3 759.3,0.7 	"/>
	<g class="st0">
		<path class="st2" d="M717.7,164.7L717.7,164.7L717.7,164.7C717.7,164.7,717.7,164.7,717.7,164.7z M781.8-10.2L781.8-10.2
			c-0.4,0-0.8,0-1.1,0h0c-2.4,0-4.7,0-6.9,0h-2.3c0,0.4,0,0.8,0,1.2h2.3c2.2,0,4.6,0,6.9,0c0.4,0,0.8,0,1.1,0c0.4,0,0.8,0,1.2,0
			v-1.2L781.8-10.2z"/>
		<path class="st2" d="M849.3-2.9c0,1.7-0.6,3.6-1.9,5.7C844,8.4,835.8,15,826.9,16.5c-3.5,0.6-6.3,0.3-9.5-0.1
			c-3.2-0.4-6.9-0.9-12.7-0.6c-10,0.5-12.6,0.7-14.6,2.1c-2.3,1.6-4.4,4-5.8,7c0.5,29.8,1.5,52.4,2.6,56.1c0,0.1,2.7,9.5,2.2,21.6
			c-0.3,6.4-0.7,13.5-5.3,16.2c-1.2,0.7-2.6,1.1-4,1.1c-2.9,0-6-1.6-8.2-4.2c-4-4.7-3.8-11.7-3.6-19.8v-0.1
			c0.5-18.4,0.7-27.6,1.1-30.2c0.6-3.9,1-17.8,1.2-38.2c-0.9-2.4-2.1-4.4-3.5-6c-2.9-3.4-7.8-6.2-9.9-5c-0.9,0.5-1.5,3.7-1.7,8.9
			c-0.2,4.5,0.1,7.7,0.3,11.1c0.2,3.1,0.5,6.3,0.4,10.9c0,5.7-0.4,8.3-1.6,11.1c-1.9,4.2-4.7,6.6-6.1,7.8l-0.3,0.2
			c-4.7,4-7.3,10.1-12.6,22.3c-8.7,20.2-13.8,52.6-16.5,76.2l-1.2-0.1v0c0,0,0,0,0,0l0,0c-2.8,69.4-0.8,155.1,1.5,163
			c0.1,0.4,2.7,9.5,2.1,21.2c-0.3,6.1-0.6,12.9-4.7,15.3c-1.1,0.7-2.3,0.9-3.4,0.9c-2.8,0-5.6-1.7-7.3-3.8c-3.7-4.4-3.6-11.2-3.4-19
			c0.5-18.4,0.7-27.6,1-30.1c0.8-5.6,1.3-31.8,1.3-63.9l-1.1-4.2c-0.7-2.5-1.2-3-1.7-3.2c-0.8-0.3-2,0.2-2.7,0.7
			c-2.4,1.6-2.4,5.6-2.3,12.8c0,3.5,0.1,7.8-0.2,12.8c-0.5,9.7-1.6,14.3-2.3,16.9c-1.7,5.6-3.8,9.4-5,11.7l-0.4,0.7
			c-10,18.3-8.6,42.9-8.2,50.9c0.6,10.6,0.9,16,2.2,21c0.3,1.2,0.7,2.3,1,3.4c1.4,4.6,2.6,8.6,1.3,13.8c-0.5,2.1-2.7,9-7.1,9.2
			c-3.1,0.2-6.4-3.1-7.3-6.2c-0.3-1-0.3-1.8-0.3-2.5c0-0.9,0-1.6-0.4-2.7c-0.3-0.7-0.7-1.4-1-1.8c-0.8,2.3-2.4,10.5-4.6,39.8l-1.2,0
			c-0.3,48.9-0.7,77-1.1,85.5c-0.1,1.4-0.1,2.6-0.2,3.8c-0.2,3.8-0.4,6.9,0.2,11.4c0.3,2.1,0.7,3.9,1,5.5c0.7,3.5,1.3,6.2,0.1,9.1
			c-1.4,3.3-4.3,5.5-7.4,5.5h0c-4,0-6.5-3.8-7.3-5.4c-1.8-3.4-2.3-7.8-1.4-13.1l0-0.1c1.5-8.9,0.9-18.4,0.3-27.5
			c-0.1-1.9-0.2-3.8-0.3-5.6l-1.2-2.7c-0.9-2-1.4-2.1-1.5-2.1c0,0-0.3,0-0.7,0.4c-4.4,4.1-10.3,30.1-11,54.6l0,0.4
			c-0.3,11.6-0.5,17.4,0,22.2c0.2,1.8,0.4,3.6,0.7,5.4c0.8,6.5,1.6,12.6,0.1,20.7c-1.4,7.4-3.5,11.2-6.3,11.6
			c-1.7,0.2-2.8-0.9-3.7-1.8c-0.7-0.8-1.2-1.2-1.8-1.2c-0.6,0-2.1,0.5-4.2,5.2l-1.3,2.9c-4.1,56.7-4.4,91.6-0.9,103.8
			c0.1,0.4,2.7,9.4,2.1,21.2c-0.3,6.1-0.6,12.9-4.7,15.3c-1.1,0.7-2.3,0.9-3.4,0.9c-2.8,0-5.6-1.7-7.3-3.8c-3.7-4.4-3.6-11.2-3.4-19
			c0.2-8,0.3-14.3,0.5-19.1l-0.9-1.3c-0.4-0.6-0.7-0.8-0.9-0.8c-1-0.2-3,2-7.1,12.9c-6.9,18.2-14.6,38.9-6.2,52
			c0.2,0.3,0.4,0.6,0.7,1c1.6,2.4,4.1,6,4.1,11c0,4.4-2,9.1-5,11.5c-2.3,1.9-5.1,2.6-8.2,2.6c-9.9,0-22-7.4-22.7-7.8
			c-14-8.6-24.4-24.3-30.1-45.4c-25.2-94-40-185.3-44-271.2c-3.2-68.7,0.5-134.2,10.9-194.6c17.8-102.9,49.6-156.2,49.9-156.7
			c14.4-23.8,32.3-53.3,55.6-78.9c27.6-30.3,55.8-47.3,86.2-52.1c12.6-1.9,22.1-1.2,36.5-0.1c12.7,1,28.4,2.2,53.2,2.3
			c0,0.4,0,0.8,0,1.2h2.3c2.2,0,4.6,0,6.9,0c0.4,0,0.8,0,1.1,0c0.4,0,0.8,0,1.2,0v-1.2c7.5-0.1,15.6-0.3,24-0.6l2.5-0.1
			c18.3-0.7,37.2-1.4,39.6,6.2C849.2-4.1,849.3-3.6,849.3-2.9z"/>
	</g>
	<rect x="-35.8" y="0.7" class="st4" width="1364.6" height="770.1"/>
</g>
</svg>
