<?xml version="1.0" encoding="utf-8"?>
<!-- Generator: Adobe Illustrator 24.1.2, SVG Export Plug-In . SVG Version: 6.00 Build 0)  -->
<svg version="1.1" id="Warstwa_1" xmlns="http://www.w3.org/2000/svg" xmlns:xlink="http://www.w3.org/1999/xlink" x="0px" y="0px"
	 viewBox="0 0 1280 1024" style="fill:#fec300;enable-background:new 0 0 1280 1024;" xml:space="preserve">
<style type="text/css">
	.st0{fill:#FEC300;}
</style>
<path d="M1011.9,850.1L1011.9,850.1v0.3V850.1z M1011.9,850.1L1011.9,850.1v0.3V850.1z M1011.9,850.1L1011.9,850.1v0.3V850.1z
	 M677.8,513.6C677.8,513.6,677.8,513.7,677.8,513.6L677.8,513.6L677.8,513.6z M1011.9,850.1L1011.9,850.1v0.3V850.1z"/>
<path class="st0" d="M1011.9,850.1L1011.9,850.1v0.3V850.1z M1011.9,850.1L1011.9,850.1v0.3V850.1z"/>
<g>
	<path d="M743.3,515.7c0.3,0,0.6,0,0.9-0.1L743.3,515.7z"/>
</g>
<g>
	<path d="M743.3,515.7c0.3,0,0.6,0,0.9-0.1L743.3,515.7z"/>
	<path d="M1243,769.9c-3.6-9.1-10.1-24-20.4-47.4c-8.4-19-18.8-43-30.2-69.4c-4.7-11.3-8.7-21.4-12.6-31.2l-0.8-2.1
		c-19.1-48-30.6-77-65.7-113.3c-22.3-23-59.6-61.5-115.7-73c-15.7-3.2-24.9-7.8-41.5-16.2l-3.4-1.7c-10.5-5.3-19.2-10.8-27.3-17.3
		c-0.1-0.1-0.3-0.3-0.4-0.5c-12.8-27.4-28.9-52.9-47.9-76c-11.4-13.7-27.1-22.7-44.4-25.3c-93-14.2-173.5-44.7-233.3-69.7
		c0,0-0.1-0.1-0.1-0.1c-3.7-2.4-7.2-4.8-10.8-7.2l-5.8-3.9c-21.7-14.5-40.4-27-56.3-36.3C370.2,84.2,300,95,56.2,151.7h0
		c-1.9,0.4-3.1,2.3-2.6,4.2l0.6,2.5c0.5,1.9,2.4,3.5,4.4,3.5h0c245.4-57,309.2-66.9,462.7,26.4c14.8,8.6,32,20.1,52.1,33.5l4.3,2.8
		c5.3,3.6,10.9,7.3,16.5,11.1c63.7,42.4,131.6,83.5,196.2,98.1c19.3,4.4,50.9,18.5,60.1,22.7c20.4,9.3,38.7,21.7,54.3,36.9
		c4.6,4.5,13.1,11.8,13.5,12.1l0.1,0.1c0.2,0.1,4.1,3.3,5.5,4.3c7.6,5.6,15.6,10.5,24.5,14.9l4.4,2.2c16.4,8.2,26.3,13.2,43,16.6
		c52.9,10.9,88.8,47.9,110.3,70.1c33.7,34.9,44.9,63.2,63.6,110.1c4.5,11.5,8.8,22,13.4,33.3c9.8,22.8,18.5,42.8,26.3,60.6l3.9,9
		c9.9,22.7,16.7,38.2,20.2,47c1.4,3.6,0.9,7.4-1.3,10.4c-5.8,7.7-15.8,12.2-30.5,13.8c-26.7,2.9-46.9-24.3-52.4-32.6
		c-9.8-15.1-11.5-29.6-12.8-41.2l0-0.2c-0.2-2-0.4-4-0.7-5.9l-0.2-1.5c-0.1-0.3-0.2-0.6-0.4-0.8l-1-0.8c0,0-0.1,0-0.1-0.1
		c-30.3-28-59.7-73.9-74.9-117c0,0,0,0,0-0.1l-0.4-1.6c-0.1-0.4-0.4-0.7-0.7-0.8l-3.6-1.5l-0.8-0.3c-21.9-9.8-44.4-18.3-60.9-24.6
		l-0.7-0.3c-41.7-16.1-74.7-28.7-86.4-46.8l-2-3.2c-0.4-0.6-1.1-0.8-1.7-0.4l-3.3,1.9c-42.2,24.9-80.1,5.7-112.3-14.2
		c0,0-0.1,0-0.1-0.1l-1.4-0.7c-0.2-0.1-0.5-0.2-0.8-0.1l-1.4,0.2l-0.3,0c-14.3,3.2-26.9,5.6-38.4,7.1c-0.3,0-0.5,0.1-0.7,0.1l-0.3,0
		c-1.9,0.2-3.5,0.4-5.1,0.6c1.8-0.5,3.5-1.1,5.3-1.7c26.1-9.2,46.4-28,60.4-55.9l0.4-0.9c0.6-0.9,0.3-2.1-0.5-2.6
		c-0.9-0.6-2.2-0.2-2.8,0.9c-0.2,0.3-0.3,0.6-0.5,0.9c-13.4,26.9-32.9,45-57.9,53.9c-9.2,3.3-19.2,5.3-29.8,6.2c0,0,0,0,0,0
		c-10.4-0.7-23.4-2.5-23.4-2.5c-1.5-0.3-3-0.6-4.5-0.9c-0.4-0.1-0.7-0.3-0.8-0.6c-12.3-23.4-23.4-48.4-33.1-74.5
		c-0.5-1.5-1.2-2.9-1.9-4.3c21.4-7.3,58-0.3,111.8,21.3l1,0.4c1.1,0.5,2.3,0,2.7-0.9c0.4-1-0.2-2.3-1.4-2.6
		c-0.3-0.1-0.6-0.2-0.9-0.4c-72.5-29.2-100.7-26.9-115.1-21.4c0,0,0,0,0,0c-1.2-1.5-4.7-0.6-5.1-0.4c0,0,0,0,0,0
		c-2.7,1-3.8,2.7-3.2,4.9l0.1,0.3c9,25.6,23.3,58.2,36.3,82.9c0.2,0.4,0.4,0.8,0.6,1.2c0.2,0.3,0.4,0.7,0.6,1.1l0,0.1
		c7.9,14.6,16.4,29,25.4,42.8l0.6,0.9c18.7,28.5,39.9,54.4,63,77.1l0.7,0.7c4.1,4,8.3,8.1,12.8,12.1c22.9,20.8,45,41.2,62.6,63
		l0.6,0.8c19.3,23.9,29.3,45.1,30.6,64.8c0.8,29.9-8.4,53.5-24.1,61.5c-16.3,8.3-35-1.9-47.9-11.9l-0.1-0.1c-5-3.6-9-6.6-12.9-9.9
		c-21.1-17.3-40.7-39.3-63.5-67l-5.2-6.4c-3.9-4.8-7.9-9.6-11.9-14.6l-5.2-6.4c-5.1-6.3-10.8-12.3-16.8-17.8l-7.5-6.9
		c-27-24.9-52.5-48.4-87.5-69.5c-28.6-17.2-51.4-27.9-71.4-33.5c-0.8-0.2-2.4-0.6-4.1-1l-0.6-0.7c-23.9-28.2-30.2-45.1-28.2-75.5
		l0.1-1c0-1.1-0.8-1.9-1.8-2c-0.9,0-1.8,0.7-1.9,1.7c0,0.3,0,0.7-0.1,1c-2,30.4,4.2,48.2,26.4,75.2c-2.3-0.5-4-0.9-4-0.9
		c-4.1-0.8-8.4-1.3-13.1-1.8c-0.8-0.1-2.5-0.2-4.4-0.4l-0.9-0.7c-1.4-1.1-2.7-2.2-4.1-3.3c-24.2-19.7-37.5-30.6-54.5-78l-0.3-0.9
		c-0.4-1.2-1.7-1.8-2.7-1.3c-0.9,0.4-1.3,1.5-0.9,2.6c0.1,0.3,0.2,0.6,0.3,1c17.3,48.3,30.9,59.4,55.6,79.5l0.9,0.8
		c-2.5-0.2-4.3-0.3-4.3-0.3l-4-0.3c-9.4-0.7-18.4-2.8-26.7-6.3c-53.2-22.2-99-81-125.7-161.3c-2.4-7.2-4.7-14.8-6.8-22.5l0-0.2
		c-16.9-50.2-32.2-77.5-53-94.2c-20.5-16.5-46.1-22.3-81.6-30.2l-3.4-0.7c-1.8-0.4-3.6-0.8-5.4-1.2c-2.8-0.6-5.7,1.1-6.4,4l0,0
		c-0.7,2.7,1,5.5,3.7,6.1c0.3,0.1,0.7,0.2,1,0.2c2.8,0.6,5.6,1.3,8.2,1.8c52.5,11.7,79.9,17.8,104.3,62.6c0,0,0.6,1.2,1.4,2.8
		c-85.7-15.1-152.2-6.9-222.2,27.3l-0.9,0.5c-1.1,0.7-1.3,2.1-0.7,2.9c0.5,0.6,1.5,0.8,2.4,0.3c0.3-0.1,0.6-0.3,0.9-0.4
		c70-34.2,136.5-42.1,222.5-26.5l0,0c0.7,1.4,1.3,2.5,1.4,2.7l0.1,0.2c4.9,10.2,9.8,22.5,15,37.3l0.8,2.5l0,0
		c-95.6-14.5-182.3,8.7-257.7,69l-0.8,0.6c-1.1,0.9-1.1,2.4-0.3,3.1c0.6,0.6,1.8,0.6,2.7-0.2c0.3-0.2,0.5-0.4,0.8-0.6
		c75-60,161.2-82.9,256.2-68l0.5,0.1l0.9,2.8c0,0,3,10.4,4.6,15.4L307,421c-63.4,12-108,26.2-149.2,47.5
		c-40,20.7-75.7,47.2-127.5,88.9c-1.4,1.2-2.4,2.2-3.1,3.2c-2.5,3.3,0.5,8.1,4.6,7.4c2-0.4,3.9-1.4,5.1-2.4
		c98.1-78.7,147-110.7,272.6-134.4l0.3-0.1c0.6-0.1,1.2,0.2,1.4,0.8c28,80.4,75.1,139.4,129.7,162.3c9.5,4,19.6,6.3,29.9,7.1
		l5.3,0.4c4.3,0.3,8.7,0.6,13.2,1.1c23.8,2.4,49,9.6,94.7,37.2c34.2,20.7,59.3,43.8,85.8,68.3l7.5,6.9c5.6,5.1,10.8,10.7,15.6,16.6
		l6.4,7.8c4.7,5.8,9.2,11.3,13.7,16.7c0.3,0.3,0.4,0.8,0.2,1.3c-23.3,62.7-20.4,99.6,9,112.7l0.1,0c2.2,0.9,4.5,1.4,6.8,1.4
		c13,0,30.8-13.1,54.3-40c0.5-0.5,1.2-0.6,1.8-0.2c3.1,2.4,5.9,4.5,8.5,6.2c14.6,11.3,28.4,17,41.1,17c6.3,0,12.2-1.4,17.8-4.2
		c19.7-10,30.9-36.6,29.8-71.3l0-0.1c-1.4-21.3-11.6-43.7-31.1-68.5c-0.3-0.4-0.4-0.8-0.2-1.3c7.3-17.3,10.8-38.3,10.8-64.8
		c0-1.3,1.7-1.8,2.3-0.6c14,24,34.3,44.2,53,51.5c0.5,0.2,0.8,0.6,0.8,1.2c0,2.5-0.1,4.9-0.2,7.4c-0.7,27.7-1.3,53.8,33.8,89.1
		c0.3,0.3,0.5,0.8,0.3,1.3c-17.9,54.2,7.1,85.8,15.2,94.3c11.8,12.5,26.5,18.4,37.4,15l0.3-0.1c6.9-2.8,7.3-11,8-24.7l0.1-2.5
		c0-0.5,0-1,0.1-1.5c6.1,13.9,13.4,24.7,20.1,29.6c12.6,9.4,26.3,14.6,38.8,14.6c3.5,0,6.8-0.4,9.8-1.1c9.3-2.4,16.2-8,19.9-16.2
		c4.2-9.2,0.3-19.2-4.2-30.8c-4.8-12.4-10.8-27.8-9.7-48.1c0.9-10.3,1.8-20.4,3-30.7l0.2-2.4c1.7-17.3,3.2-32.2,3.2-43.8
		c0.3-10.5-6.2-33.8-17.9-76l-0.2-0.6c-1.5-5.5-3.1-11.4-4.9-17.6c-0.3-1.2-0.7-2.5-1-3.7c15.5,28.2,35.1,54.4,54.9,73
		c0.2,0.2,0.3,0.5,0.4,0.8c0.1,0.9,0.2,1.9,0.3,2.9l0,0.3c1.4,12.1,3.2,28.6,14.5,45.9c5.8,8.8,27.2,37.6,57.2,37.6
		c1.7,0,3.3-0.1,4.9-0.2l0.1,0c17.8-1.9,30.1-7.8,37.8-18C1244.7,784.5,1245.7,776.9,1243,769.9z M897.8,373.3
		c-12.9-10.3-27.3-19.2-43.1-26.4c-12.2-5.5-42.6-18.9-62.2-23.3c-45.5-10.2-92.5-34.1-135.9-60.4c-1.3-0.8-0.3-2.8,1.1-2.3
		c47.2,17.3,107,35.7,173.7,45.9c14.7,2.3,28.2,10,37.9,21.7c11.2,13.5,21.3,27.9,30.3,43.1C900.3,372.9,898.8,374.2,897.8,373.3z
		 M775.5,825c-26.6,30.3-42.7,38.3-48.9,35.5c-22.4-10-24.4-40.3-6.1-92.4c0.3-0.9,1.6-1.1,2.2-0.4c18.5,22.1,35,40.3,52.6,55.4
		C775.9,823.6,776,824.4,775.5,825z M744.2,515.6c-0.3,0.1-0.6,0.1-0.9,0.1L744.2,515.6z M765.6,621.1c-0.1,1.1-1.4,1.6-2.2,0.8
		c-17.1-17.8-32.9-37.3-47.1-58.1c-0.6-0.8,0-2,1-2c10.1-0.2,22.3,1,38.1,6.6c0.3,0.1,0.6,0.3,0.7,0.6
		C763.6,583.5,766.9,601.6,765.6,621.1z M844,698.8c-0.3,0.9-1.5,1.1-2.1,0.4c-16.3-18.7-35.4-36.5-56.7-55.9
		c-3.2-2.9-6.4-5.9-10-9.4c-0.3-0.3-0.4-0.7-0.4-1.1c3.9-26.8,0.4-51-10.3-70.2l-0.1-0.1c-0.4-0.7-0.9-1.6-1.1-1.9l-1.4-2.5
		c-0.2-0.4-0.5-0.6-1-0.6c-1.8-0.2-7.2-0.9-10-1.6c-3.3-0.8-30.6-5-42.2-4.2c-0.5,0-0.9-0.2-1.1-0.6c-5.7-8.8-11.1-17.8-16.2-26.8
		c-0.5-0.9,0.3-2,1.3-1.9c15,2.3,29.7,2.5,47.2,0.6c0,0,28.9-4.2,41.8-7c0.3-0.1,0.6,0,0.9,0.1c19.6,12,41.3,23.6,64.9,26v0
		c-1.3,20.3-0.2,38.4,3.7,60.5l0.1,0.6c-1.2,1-2,2.5-1.8,4.5v0C853.4,647.5,851.6,676.7,844,698.8z M1083.9,745.7v0.1
		c0,11.1-1.5,26-3.2,43.2l-0.2,2.1c-1.2,11.6-2.1,21.4-3,30.8v0.1c-1.3,22.2,5,38.7,10.1,52l0.3,0.7c2.7,7,5.3,13.5,5.3,18.4
		c0,1.7-0.3,3.1-0.8,4.2c-2.5,5.3-6.9,8.9-13,10.5c-11.3,2.8-26.1-1.5-39.8-11.6c-8.2-6-18.5-25.8-24.4-47l-1.3-4.6
		c-4.9-19.6-5.9-39.1-3-55.3c0.1-0.4,0.2-0.9,0.3-1.5c0,0,0-0.1,0-0.1c0.1-0.6,0.3-1.3,0.4-1.9l0.2-1c0.1-0.3,0-0.6-0.1-0.9
		c0,0,0,0-0.1-0.1c4.8-17.6,14.7-31.1,29.4-40l0.9-0.5c1.8-0.8,2.3-2.9,1.5-4.2c-0.8-1.2-2.8-1.7-4.3-0.5c-0.3,0.2-0.6,0.3-0.9,0.5
		c-15.1,9.1-25.5,22.6-30.9,40.3c-1.5-1.6-3.2-3.7-4.8-6.1c-23.9-41-31.2-95.1-18.4-140.6l1.4-4.6c0.2-0.8-0.3-1.5-1.1-1.6l-4.6-0.5
		c-29-3.4-71.1-27.8-101.7-58.6c-1.9-1.9-5-2-7-0.1c-1.1,1.1-1.7,2.5-1.7,4c0,1.4,0.5,2.8,1.6,3.9c29.8,30,69.7,53.8,100.4,60.1
		c0.7,0.1,1.1,0.8,1,1.5c-12,50.9-1.4,109.9,27.7,152.3c0.2,0.3,0.3,0.6,0.2,0.9c-3.7,22.7,0.3,45.1,4.5,60.4c0,0.2,0.1,0.3,0,0.5
		c-1.3,10.9-1.8,19.9-2.2,27.3l0,0.7c-0.3,5.3-0.6,11.7-1.4,14.3c-0.1,0.4-0.5,0.8-0.9,0.8c-6.7,1.1-17-4-25.2-12.7
		c-7.3-7.7-29.8-36.8-11.6-87.5l0.9-2.4c0.2-0.5,0-1-0.3-1.3l-1.9-1.8c-34.7-33.3-34.2-55.7-33.6-83.9l0-0.3
		c0.1-3.8,0.2-8.1,0.2-12.4v-3c0-0.6-0.4-1.1-1-1.2l-2.8-0.7c-22.9-6.5-55.4-42.3-64.8-80.5c-0.5-1.9-1.6-3.1-3-3.6l-0.1-0.6
		c-3.8-21.7-4.9-39.5-3.6-59.3v0c14.4,0.6,29.6-2.3,45.5-10.6c0.5-0.3,1.2-0.2,1.6,0.3c15.5,18.3,47.9,30.8,88.5,46.3
		c15.6,6,36.8,14.1,57.6,23.2c0.4,0.2,0.6,0.5,0.7,0.9c3.8,13.9,7.3,26.8,10.5,38.3c3.2,11.8,6.2,22.2,8.6,31.1
		C1077,711,1084.2,736.7,1083.9,745.7z"/>
</g>
<polygon points="1011.9,850.3 1011.8,850 1011.9,850.1 "/>
<path d="M744.2,515.6c-0.3,0.1-0.6,0.1-0.9,0.1L744.2,515.6z"/>
<path d="M710.4,511.7L710.4,511.7z"/>
</svg>
