<?xml version="1.0" encoding="utf-8"?>
<!-- Generator: Adobe Illustrator 24.1.2, SVG Export Plug-In . SVG Version: 6.00 Build 0)  -->
<svg version="1.1" xmlns="http://www.w3.org/2000/svg" xmlns:xlink="http://www.w3.org/1999/xlink" x="0px" y="0px"
	 viewBox="0 0 1280 1024" style="fill:#fec300; enable-background:new 0 0 1280 1024;" xml:space="preserve">
<g id="Warstwa_1">
	<g>
		<path d="M1250.2,532.3c-0.8-2.9-3.9-4.7-6.9-3.9l-0.1,0c-67.3,19-124.2,20.7-160,18.7c-45.4-2.5-74.4-11.2-85.5-18
			c-2.3-1.4-3.2-2.4-3.5-2.7c0,0,0-0.1-0.1-0.1c-0.1-0.7-0.2-1.5-0.3-2.4l0-0.2c-0.3-3.2-0.6-7.3-3.7-13.6
			c-5.3-11.1-21.8-20.9-40.9-32.3l-0.1-0.1c-2.2-1.3-4.4-2.6-6.6-4c-11.4-6.8-15.8-13.6-22-22.9c-5.4-8.2-11.5-17.5-23.7-29
			c-22.6-21.3-92.1-57-105.2-61.8c-21.3-7.8-56.3-10.1-73.9-9.7c-0.2,0-0.3-0.1-0.3-0.3c-0.2-1.6-0.5-3.2-0.7-4.9l0-0.2
			c-1.1-7.8-2.1-15.9-5.2-22.9c-0.7-1.7-1.6-3.5-2.4-5.3c-3.5-7.5-8.4-17.7-8.7-30.1c-0.3-13,2.3-23.7,4.5-33.2
			c2.1-8.7,3.9-16.2,3.4-24l0-0.2c-0.6-11.4-4.3-39.1-25.6-51.1c-15-8.4-36.8-10.8-47.6,1.1c-40.4,44.5-34.8,109.3-34.5,112
			c0.8,8.5,4.5,21,8.5,34.4l0,0.2c4.8,16.1,10.5,35.3,11.1,48.3c0,0.4-0.5,0.5-0.6,0.1c-1.1-2.8-2.1-5.7-2.9-7.9
			c-3.2-8.9-6.8-18.9-10.8-25.3c-5.5-8.9-10.9-12.9-15.8-16.5c-4.1-3.1-7.4-5.5-10.5-10.9c-3.3-5.8-4.3-9.6-5.8-16l0-0.1
			c-1.1-4.7-2.6-11.2-5.7-20.5c-3.7-11.2-6.5-16.4-8.7-20.5l-0.1-0.1c-2-3.6-3.1-5.8-4.2-11c-2.4-11.6-1.5-23.7-0.8-35.5
			c0.8-11.5,1.5-22.3-0.4-33c-2.8-15.3-16.1-33.8-35.6-37.6c-12.4-2.5-25.7,0.5-37.5,8.3c-0.2,0.1-0.4,0-0.5-0.2
			c-2.5-8.8-5.9-12.7-9.3-15.4c-12.6-9.9-33.6-10.3-47.9-0.9c-12,7.9-14.8,20-20.9,46.4l-0.4,1.7c-0.5,2-0.9,4.1-1.5,6.2
			c-3.2,13.5-5.9,24.5-8,33.3l-0.4,1.8c-4.8,19.7-7.3,29.6-7.7,37.7c-1.4,27.4-0.8,54,1.8,79.3c0,0.2-0.1,0.3-0.2,0.3
			c-1.2,0.3-2.5,0.6-3.8,1l-0.7,0.2c-5.4,1.5-14,3.9-23,9.1l-3.3,2c-6.1,4-12.2,9.4-17.5,16.7l-1.1,1.5c-5,6.7-12.5,16.9-11,30.3
			c0.9,8.1,10.2,14.1,42.4,33.5c9,5.4,15.5,10.6,21.9,15.7c9.2,7.3,17.9,14.2,32.7,21.6c0.1,0.1,0.1,0.1,0.2,0.2
			c7,14.1,14.9,27.5,23.6,40.2c0.1,0.2,0.1,0.4-0.1,0.5c-18.7,10.3-29.9,19.7-44.3,32.8c-0.1,0.1-0.2,0.1-0.3,0.1
			c-8.9-3.8-21.7-7.5-37-7.3c-29.3,0.6-47,5.6-59.9,9.3l-0.2,0c-8.2,2.4-14.2,4-19.8,3.6c-13-1-25.8-6.1-37.1-10.6
			c-8.1-3.2-15-6-21.1-6.9c-3.2-0.5-6.3-0.9-9.3-1.3l-0.2,0c-18-2.6-31-4.5-41-8.6c-5.7-2.4-8.8-4.8-11.7-7.1
			c-4.3-3.3-8.6-6.7-18.6-8.8c-30.2-6.2-72.3-10.9-102.1,2.2c-9.2,4-24.2,19.7-21.3,36.7c1.7,10.2,9.6,14.9,21.6,22
			c4.8,2.9,10.3,6.1,16.7,10.4c14.3,9.7,21.6,15.8,26.9,20.2l0.1,0.1c6.6,5.5,10.9,9.2,22,14.3c14.1,6.4,23.8,8,34.1,9.6l0.1,0
			c8.6,1.3,18.3,2.8,32.4,7.7c16.2,5.5,23.3,10.2,32.3,16.2l0.8,0.6c1.6,1.1,3.3,2.2,5.1,3.3c12.9,8.2,34.8,8.1,65.1,7.9h0.2
			c25.1-0.2,56.3-0.4,91.1,4.3c48.5,6.5,117,21.3,141.4,29.1c26.1,8.4,39.4,20.1,51,30.4c12.5,11.1,24.3,21.5,47.8,24.8
			c3.4,0.5,6.9,0.9,10.4,1.3l0.2,0c8.8,1,18.7,2.2,23.2,4.2c21.8,10,31.1,16.3,45.1,25.7l1.6,1.1c15.9,10.6,61.9,17.4,98.8,22.8
			l0.4,0.1c17.1,2.5,33.3,4.9,38,6.7c12.7,4.7,18.2,7.6,24.6,11l0.1,0.1c7.9,4.1,16.8,8.8,39.2,17.6c46.2,18.1,82.8,25.8,100.5,29.5
			l3.3,0.7c56.5,12,125.7,37.4,205.7,75.5c0.8,0.4,1.6,0.6,2.5,0.6c2.2,0,4.2-1.3,5.1-3.3c1.3-2.8,0.1-6.1-2.6-7.5l-0.1,0
			c-80.8-38.5-150.9-64.2-208.3-76.4l-3.3-0.7c-17.3-3.6-53.3-11.2-98.7-28.9c-22.1-8.7-30.7-13.2-38.2-17.2
			c-6.8-3.6-12.7-6.7-25.9-11.6c-5.7-2.1-18.5-4.1-40.8-7.3c-32-4.7-80.4-11.9-94.2-21l-1.6-1.1c-14.5-9.7-24.1-16.2-46.7-26.6
			c-6.2-2.8-16.2-4-26.8-5.2c-3.4-0.4-6.8-0.8-10.1-1.2c-20.1-2.8-29.7-11.3-41.8-22.1c-12.5-11.1-26.6-23.6-55.1-32.8
			c-24.9-8-94.4-22.9-143.3-29.5c-35.6-4.8-67.2-4.6-92.7-4.4c-28.5,0.2-49,0.3-59.1-6.1c-2.1-1.3-4-2.6-5.8-3.8
			C205,629,197.4,624,179.8,618c-15-5.1-25.3-6.7-34.3-8.2l-0.1,0c-10.3-1.6-18.4-2.9-31.2-8.7c-9.7-4.4-13.1-7.3-19.4-12.6
			c-5.5-4.6-13-11-27.9-21c-6.5-4.4-12.3-7.8-16.9-10.6l-0.3-0.2c-10.9-6.5-15.4-9.3-16.2-14.2c-1.9-11,9.4-22.1,14.6-24.4
			c28.5-12.4,71.9-6.3,95.3-1.5c7.4,1.5,10.2,3.7,14,6.6l0.1,0.1c0.9,0.7,1.9,1.5,3.1,2.3c0,0,0,0,0,0l3.1,1.7
			c0.1,0,0.2,0.1,0.2,0.2c0.1,0.4,0.1,0.8,0.1,1.2c1.7,17.1-4.7,29.8-19.6,38.5c-0.5,0.3-0.9,0.8-1.1,1.4c-0.2,0.6-0.1,1.2,0.3,1.8
			c0.4,0.7,1.2,1.1,1.9,1.1c0.3,0,0.7-0.1,1.2-0.3c15.6-9.2,23-22.8,22-40.6c0-0.2,0.2-0.4,0.5-0.3l3.2,1.8c0,0,0,0,0,0
			c11.1,4.5,24.6,6.4,43.1,9.1l0.1,0c3,0.4,6,0.9,9.3,1.3c4.8,0.7,11.2,3.3,18.7,6.3c9.6,3.8,20.2,8.1,31.7,10.2
			c0.2,0,0.3,0.3,0.2,0.5c-17.8,20.1-26.6,35.1-26.9,46c0,1.3,1,2.3,2.3,2.3c1.3,0,2.3-1,2.3-2.2c0.2-9.5,25.7-42.8,27.4-44.9
			c0.1-0.1,0.1-0.1,0.2-0.1l4.3-0.3c0,0,0,0,0,0c7.2,0.3,14-1.7,22.6-4.1c12.3-3.5,29.2-8.3,57.2-8.9c11.9-0.2,32.3,5.7,32.7,5.7
			c0.2,0,0.3,0.3,0.2,0.5c-16.5,26.7-20.3,52-22.6,67.3l0,0.1c-0.3,2.1-0.6,4.2-0.9,5.9c-0.2,1.2,0.6,2.4,1.8,2.6l0.5,0.1
			c1.1,0,2-0.8,2.3-1.9c0.3-1.6,0.5-3.5,0.8-5.5l0.1-0.6c2.3-15.2,6-40.5,22.8-66.9c0.2-0.3,0.3-0.5,0.5-0.8l3.5,0.5
			c0.1,0,0.2,0,0.3-0.1c16.6-15.2,27.9-25.1,50.6-36.9l5.6-2.8c0.2-0.1,0.2-0.3,0.1-0.5l-3.7-5.1c-6.7-9.3-13-19.2-18.8-29.4
			c-0.2-0.3,0.2-0.6,0.4-0.4c39.1,20,70.3,36.1,83.7,45.5c0,0,0,0,0,0l0.8,0.7c-40.1,17.5-67.7,45.9-75.7,77.8
			c-0.2,0.6-0.1,1.2,0.2,1.7c0.3,0.6,0.8,1,1.5,1.1l0.2,0.1h0.3c1,0,1.9-0.7,2.2-1.7c7.8-31,35-58.5,74.8-75.5c0.1,0,0.2,0,0.3,0.1
			l2.3,2.1c0,0,0,0,0,0c13.5,15.7,45.3,64.6,57.5,87.6l0,0.1c1,1.8,2.9,2.9,4.9,2.9c0.9,0,1.7-0.2,2.5-0.6l0,0
			c0.8-0.4,1.6-1,2.1-1.8c1.2-1.9,1.3-4.1,0.3-5.9c-12.7-23.8-52.1-85.3-64.3-95.1c-12.7-10.2-50.2-29.4-97.6-53.6l-8.3-4.2
			c-0.8-0.4-1.6-0.8-2.4-1.2c-13.3-6.8-21.4-13.2-30.1-20.1c-6.6-5.3-13.5-10.7-23-16.4c-17.4-10.5-35.4-21.4-37-25.2
			c0,0,0-0.1,0-0.1c-0.9-8.9,4.5-16.2,8.9-22.1l1.1-1.5c6.6-9,15.4-15.6,26.8-20.1c0,0,0.1,0,0.1,0c0.6,0,4.5-1.5,6.1-2.1
			c0,0,0.1,0,0.1,0c1.2,0.2,2.4,0.4,3.6,0.7c24.2,4.8,41.4,14.3,59.7,24.3l0.6,0.3c5.7,3.1,11.5,6.3,17.6,9.3
			c38.8,19.4,97.9,84.4,117.4,105.8l0.5,0.5c14.1,15.5,63.2,66.6,104.4,74.3c0,0,0,0,0,0l1.1,0.1c0.1,0,0.2,0,0.3-0.1l0.7-0.8
			c25.7-28.4,72.9-31.4,82.1-28.9c0.4,0.1,0.8,0.2,1.3,0.3c12.1,3.1,48.8,12.7,58,77.7c4.3,30.3,21.6,60.4,51.5,89.4
			c27.1,26.4,57.8,45.1,68,51.3c0.4,0.2,0.8,0.4,1.2,0.4c0.8,0,1.6-0.4,2-1.1c0.3-0.5,0.4-1,0.3-1.6c-0.1-0.6-0.5-1.2-1-1.5
			c-71.1-43.4-110.6-89.7-117.4-137.5c-4.1-28.8-14.1-50.6-29.7-64.9c-12.7-11.5-25.5-14.9-31.7-16.5c-0.5-0.1-0.9-0.2-1.2-0.3
			c-9.6-2.6-58.4,0.4-85.7,29.2c-0.1,0.1-0.2,0.1-0.3,0.1c-39.5-8.3-86.9-57.6-100.5-72.6l-0.5-0.5c-19.6-21.5-79.1-87-118.7-106.8
			c-6.1-3-12-6.3-17.7-9.4l-0.4-0.2c-17.3-9.5-33.7-18.4-55.9-23.6c1.3-0.3,2.6-0.6,3.9-0.8c47.5-9.2,90.3,16.2,104.4,24.5l1.5,0.9
			l0.3,0.2c28.5,17.1,56.5,39.5,70.5,53.1c22.4,21.8,42.2,36.3,62.4,45.7c13.9,6.5,24.8,9.3,36.6,9.3c5.1,0,10-0.5,15.1-1l1.2-0.1
			c0.7-0.1,1.3-0.3,1.8-0.5c0,0,0.1,0,0.1,0c30.8-3.4,55.6-0.7,73.9,2.1c35.8,5.4,57.4,8.6,100.1,75.4
			c42.3,66.1,62.3,72.2,95.3,82.2l0.4,0.1c4.3,1.3,8.8,2.7,13.6,4.3C1015,658.6,1138,668,1203.2,668c8.3,0,15.2-0.2,20.7-0.5
			c1.4-0.1,2.8-0.8,3.7-1.8c0.9-1.1,1.4-2.5,1.3-3.9c-0.1-1.4-0.8-2.8-1.9-3.7c-1-0.9-2.4-1.3-3.7-1.2
			c-47.9,2.7-199.7-6.7-249.3-23.1c-4.9-1.6-9.4-3-13.7-4.3l-0.5-0.1c-30.8-9.3-49.3-14.9-89.5-77.7c-20.8-32.5-38.8-52.9-56.7-64.3
			c-17-10.8-32.6-13.1-50.8-15.9c-19-2.8-44.8-5.6-76.6-2.1c0,0-0.1,0-0.1,0c-0.6-0.1-1.2-0.2-1.8-0.1l-0.7,0.1
			c-8,0.9-14.7,1.6-22.6,0.4c0,0,0,0,0,0l-2.6-0.6c-0.2,0-0.3-0.3-0.2-0.5c3.7-7.1,7.3-12.5,10.8-16.2c3.6-3.8,7.1-5.8,10.3-5.8
			c0.1,0,0.2,0,0.3,0c1.1,0,2.3,0.4,3.8,0.9c3.5,1.2,8.8,3,18.3,1c0.1,0,0.3,0,0.4-0.1c3.6-0.8,7.7-2.1,12.1-3.8
			c25.4-10.2,98.4-8,101.5-7.9c9.9,0.3,45.4,1.8,84.6,7.5l0.6,0.1c0.4,0.1,0.9,0.1,1.3,0.2c0.1,0,0.2,0.1,0.2,0.1l2.8,3.4
			c2.3,3.1,4.2,6.1,6.2,9.1c6.2,9.4,12,18.2,25.6,26.4c1.2,0.7,2.4,1.5,3.6,2.2l3.1,1.8c16.1,9.6,32.7,19.4,36.6,27.5
			c2.1,4.5,2.4,7,2.6,9.7l0,0.4c0.1,1.2,0.2,2.4,0.5,3.8c0.7,3.5,3.6,6.7,8.7,9.8c12.2,7.4,43.3,17,90.8,19.6
			c7.8,0.4,15.9,0.7,24.1,0.7c46.1,0,93.1-6.7,139.5-19.8c1.5-0.4,2.7-1.4,3.5-2.7C1250.4,535.3,1250.6,533.8,1250.2,532.3z
			 M620,323l0-0.1c-3.8-12.8-7.4-25-8.1-32.4c-0.2-2.5-5.4-62.5,31.7-103.4c6.4-7,22.6-5.1,33.7,1.1c16.4,9.2,19.3,32.2,19.8,41.8
			v0.3c0.3,6.3-1.3,13-3.2,20.9c-1.3,5.6-2.8,11.9-3.8,18.9c-0.1,1-0.3,1.9-0.4,2.9c-0.1,0.1-0.2,0.2-0.3,0.3
			c-26.6,5.5-46.2-1.6-58.3-21.1c-0.6-1.1-2-1.5-3.2-0.8c-0.5,0.3-0.9,0.8-1,1.4c-0.1,0.6,0,1.2,0.3,1.7
			c10.4,16.7,25.8,25.2,45.7,25.2c5,0,10.4-0.5,15.9-1.6c0.2,0,0.4,0.1,0.4,0.3c-0.1,0.9-0.1,1.9-0.1,2.9c-0.1,2-0.1,3.9,0,5.9
			c0.1,3.2,0.4,6.4,1,9.7c0.2,0.9,0.4,1.9,0.6,2.8c-0.1,0.1-0.1,0.2-0.2,0.4c-20.6,10.3-36.7,11.1-50.9,2.5
			c-0.5-0.3-1.1-0.4-1.6-0.3c-0.6,0.1-1.1,0.5-1.5,1c-0.3,0.5-0.4,1.1-0.3,1.7c0.1,0.6,0.5,1.1,1.1,1.4c7.2,4.4,14.8,6.5,23.2,6.5
			c9.4,0,19.6-2.7,31.1-8.4c0.2-0.1,0.4,0,0.4,0.2c0.1,0.4,0.2,0.8,0.3,1.2c2,6.4,4.6,11.8,6.6,16l0.1,0.3c0.8,1.6,1.5,3.2,2.1,4.5
			c2.4,5.6,3.4,12.8,4.3,19.8l0,0.2c0.5,3.7,1,7,1.5,10.1c0.2,1.1,0.6,2.1,1.2,2.9c0,0.1,0,0.2,0,0.4c-7.6,12.9-22.1,22.9-39.7,27.4
			c-14.2,3.7-28.5,3.1-38.1-1.4c-0.1-0.1-0.1-0.2-0.2-0.4c0.2-0.8,0.4-1.7,0.6-2.6C633.4,368.3,626.6,345.3,620,323z M516.1,150.5
			c14,2.8,24.5,16.7,26.7,28.6c1.7,9.4,1,19.5,0.3,30.3c-0.7,10.2-1.4,20.7-0.2,31.3c0.1,1.3,0.3,2.6,0.5,3.9c0,0.3-0.2,0.5-0.5,0.3
			c-10.8-6.2-21.9-9-33.8-8.6c-8.3,0.3-16.4,2.1-25.5,5.7c-0.2,0.1-0.4-0.1-0.4-0.3c0-9.7-0.1-18.6,0.1-21.1
			c0.3-7.1,0.6-14.1,0.8-21.1c0.3-16.2,0-29.1-1.2-39c0-0.1,0-0.2,0.1-0.3C493.2,151.9,505.2,148.3,516.1,150.5z M397.3,247.8
			C397.3,247.8,397.3,247.7,397.3,247.8c1.2-6,3.1-13.7,5.8-24.5c2.4-10,5.1-21.1,8.4-35.1l1.8-7.9c5.6-24.1,7.9-34.1,16.1-39.5
			c10.1-6.7,26-6.5,34.7,0.3c1.6,1.3,5,4,7,17.5l0,0.3c0,0,0,0,0,0.1v0c1.4,9.8,1.9,23,1.5,40.4c-0.2,6.9-0.5,13.8-0.8,20.8
			c-0.2,3.6-0.1,15.5,0,26.9c0,0.1-0.1,0.2-0.2,0.3l-3.7,1.8c-11.9,5.8-24.2,11.7-39.1,12.1c-8.9,0.2-18.8-0.8-31.9-9.9
			c-0.1-0.1-0.1-0.2-0.1-0.3L397.3,247.8z M414.4,334.6c-5.6,0-11.2,0.4-16.7,1.1c-0.2,0-0.3-0.1-0.4-0.3c-2.4-24.2-3-49.6-1.7-75.7
			c0,0,0,0,0,0l0.4-3.1c0-0.2,0.3-0.3,0.5-0.2c10,6.5,19.2,9.3,30.4,9.3c0.7,0,1.4,0,2.1,0c15.9-0.4,28.6-6.6,41-12.6l1.5-0.7
			c0.2-0.1,0.5,0.1,0.5,0.3c0.1,10,0.3,18.3,0.3,18.3c0,0,0,0,0,0c1.7,22.5,3.5,45.7,18.2,83.7c0.1,0.3-0.2,0.5-0.4,0.4
			C473,346.1,445.7,334.6,414.4,334.6z M493.5,328.9l-0.9-3.1c-6.5-22.7-7.8-39.5-9.1-55.7c-0.1-1.2-0.2-11.8-0.3-23
			c0.3-0.1,0.5-0.2,0.7-0.3c9.1-3.7,17.2-5.6,25.3-5.9c12.2-0.5,22.9,2.6,33.9,9.5c0.6,0.4,1.1,0.7,1.7,1.1c0.1,0,0.1,0.1,0.1,0.2
			c1.1,3.7,2.6,7.2,4.4,10.4c2,3.8,4.6,8.4,7.9,18.7c0.5,1.6,2.3,8,3.7,13.1c0,0.1,0,0.1,0,0.2c-0.3,0.7-0.6,1.4-0.9,2
			c-11.2,23.2-33.3,34.2-65.9,32.9C494,328.9,493.8,328.9,493.5,328.9z M583.3,422.4c-1.3-0.8-2.8-1.5-3-1.7c0,0,0,0-0.1,0
			c-0.7-0.7-1.5-1.4-2.2-2.1c-14.2-13.8-42.4-36.4-71.1-53.8c-0.1,0-0.1-0.1-0.1-0.1c-4.8-11.1-8.7-21.3-11.8-30.9l0-0.1
			c1.4,0,2.9,0.1,4.6,0.1c15.4,0,28.5-2.8,39.1-8.4c10-5.3,18.1-13.3,23.8-23.8c0.1-0.3,0.5-0.2,0.6,0.1c1.5,6.3,2.7,11.1,6.7,18
			c4.3,7.4,9,10.9,13.6,14.3c4.4,3.2,8.5,6.3,12.8,13.4c3.3,5.4,6.8,14.9,9.8,23.2c4,11.1,6.4,17.2,9,20.7c0,0,0,0,0,0
			c0.6,0.6,1.3,1.3,2,1.8c0,0.2,0.1,0.3,0.1,0.4c-4,7.8-15.1,17.4-33.1,28.5C583.8,422.1,583.6,422.2,583.3,422.4z M699.1,444.3
			c0,0.1-0.1,0.2-0.3,0.3c-7.1,1.2-10.9-0.1-14.3-1.2c-1.7-0.6-3.3-1.1-5.1-1.2h-0.1c-0.1,0-0.2,0-0.3,0c-8.5,0-17,8.4-25.8,25.6
			c-0.1,0.1-0.2,0.1-0.4,0.2l-2.8-0.7c0,0,0,0,0,0c-4-1.3-8.2-2.9-12.8-5.1c-16.1-7.6-32-18.5-49.4-34.4c0,0,0,0-0.1-0.1l-1.2-2
			c0,0,0,0,0,0c19-11.8,30.3-21.7,34.7-30.3c0-0.1,0.1-0.2,0.1-0.3c2.5,0.4,5.1-0.6,7.1-4.6c0.1-0.1,0.3-0.2,0.4-0.1
			c5.8,2.7,13.1,4,21.2,4c6.4,0,13-0.9,19.6-2.5c18.7-4.8,34.2-15.6,42.4-29.5c0.1-0.2,0.2-0.3,0.3-0.5c1,0.2,2.2,0.1,3.6,0
			c14.5-0.6,43.1,1.1,63.5,6.4c0.3,0.1,0.3,0.4,0.1,0.6C743.8,391.6,703.4,420.2,699.1,444.3z M815.6,432.3
			c-7.9-0.2-77.8-2.1-103.4,8.2c-2.8,1.1-5.3,2-7.7,2.7c-0.2,0.1-0.5-0.2-0.4-0.4c6.4-22.7,48.5-51.6,80.3-71.6
			c0.4-0.3,0.8-0.5,1.2-0.8c0.1-0.1,0.2-0.1,0.3,0l3.6,1.2c0,0,0,0,0,0c16,6.7,79.3,39.6,99.6,58.7c2.8,2.7,5.5,5.4,7.9,8.1l0.9,1.1
			C860.8,434.1,828.1,432.7,815.6,432.3z"/>
	</g>
</g>
<g id="Warstwa_3">
</g>
</svg>
