<svg id="Warstwa_1" data-name="Warstwa 1" xmlns="http://www.w3.org/2000/svg" viewBox="0 0 1016.1 622.4"><defs><style>.cls-1{fill:none;}.cls-2{fill:000000;}</style></defs><g id="Warstwa_1-2" data-name="Warstwa 1"><line class="cls-1" x1="450.3" y1="138.4" x2="450.3" y2="138.4"/><path class="cls-2" d="M487.1,392.5v48.3H425.4V643H375.5V440.9h-6.4a19.42,19.42,0,0,0-2.4.2,34.92,34.92,0,0,0-7.5,2.3c-4.3,2.1-5.6,4.8-6.1,7.3a3.46,3.46,0,0,1-.9,2c-1.2,1-3.1.8-4.6.4,0,6.4.5,23.5.7,36a4.06,4.06,0,0,1-4.2,4,3.87,3.87,0,0,1-4.1-3.7c-.4-13.8-.5-26.7-.9-33.1-1-12.3-7.9-14.5-10.1-13.8-1.2.5.1,3.5-2.3,4a2.44,2.44,0,0,1-2.4-.6c-1.4-1.4-1.2-3.3-2-4.2a2.07,2.07,0,0,0-1.3-.9l-1.4-.4v-48H487.1v.1Z" transform="translate(-148 -204.9)"/><path class="cls-2" d="M717.6,643.8l-66-251.3H559.9L494.5,642.2h52.4l15.4-58.6h87.2l15.2,57.9h.1a5.34,5.34,0,0,1,5.1,4,2.34,2.34,0,0,0,.8,1.8,3.38,3.38,0,0,0,2,.6c1.4.1,2.7-.1,4.1.1h.1a8.3,8.3,0,0,1,6.2,4.7c1.2,2.5,2.6,4.9,4,5.7a6.8,6.8,0,0,0,5.4.6s1.2,25.6,1.6,29.7,3,3.6,3.9,3.5,3.3-.4,3.2-4.6-.2-18.8-.7-27.6,3.8-9.2,6.7-10.8,2.5,0,2.9,1.4,2.2,2.1,3.2,2.1a2.21,2.21,0,0,0,2.2-2.4c-.2-1.5-.4-1.7,1.1-2.7C717.7,647,718,645.7,717.6,643.8ZM573.5,540.6l26.4-100.5h11.8l26.4,100.5Z" transform="translate(-148 -204.9)"/><path class="cls-2" d="M993.4,595.2v47.2h0a2.53,2.53,0,0,0-2.3,1.5c-.3.6-.5,1.1-.7,1.6-.4,1.1-1.2,2-1.7,2a2.45,2.45,0,0,1-2.7-1.7c-.8-1.9-.6-3.5-4-1.2s-5,4.4-5,6.7-.3,9.5-.3,11.4-2.1,3.3-3.4,3.3-3.6-.3-3.6-3.3v-9.5s-4.9,1.7-5.9-2.5c-.7-3.1-3.8-6-10.1-7.8a11.24,11.24,0,0,0-3.2-.4h-7.2V595.3l50.1-.1Z" transform="translate(-148 -204.9)"/><path class="cls-2" d="M874.6,485.4V462l-23.1-21.9H813l-22.2,21.1V574.3l21.8,20.8h39.5l21.3-20.3V554.7h-3.7c-5.3,1-9.3,3.4-10.5,6.3-1.6,4-4.9,2.8-4.9,2.8s0,6.7-.2,8.3a2.63,2.63,0,0,1-2.7,2.3,2.5,2.5,0,0,1-2.4-2.7c0-2-.3-6.4-.2-8.1s-.4-3.5-2.7-5.8-3.8-1.8-3.9-1.3.4,1.1-.5,2.1a2.5,2.5,0,0,1-2.7.8c-.9-.2-1.1-1.8-1.3-2.3s-1.2-.4-1.5-1.3a11,11,0,0,1-.1-3.4V511.7h87.2l.4,85.5-50,46.8-83.1-.6-50-48V439.6l49.2-46.8h85.1l49.2,46.8v45.7l-49.5.1Z" transform="translate(-148 -204.9)"/></g><g id="Warstwa_3" data-name="Warstwa 3"><polygon class="cls-2" points="893.1 569.3 942.3 622.4 0 587.4 20.7 0 1016.1 36.8 997.4 564.6 948.4 511.7 963.5 89.8 70.4 57.4 52.3 538.1 893.1 569.3"/></g></svg>