<svg xmlns="http://www.w3.org/2000/svg" width="168.624" height="119.566" viewBox="0 0 168.624 119.566"><g transform="translate(-160.44 -420)"><g transform="translate(160.44 420)"><g transform="translate(24.894 27.201)"><path d="M237.952,478.157v7.007H229V514.5h-7.239V485.178h-.929a2.812,2.812,0,0,0-.348.029,5.075,5.075,0,0,0-1.088.334,1.432,1.432,0,0,0-.885,1.059.5.5,0,0,1-.131.29.765.765,0,0,1-.668.058c0,.929.073,3.409.1,5.223a.589.589,0,0,1-.609.58.561.561,0,0,1-.595-.537c-.058-2-.073-3.874-.131-4.8-.145-1.784-1.146-2.1-1.465-2-.174.073.014.508-.334.581a.354.354,0,0,1-.349-.087c-.2-.2-.174-.479-.29-.61a.3.3,0,0,0-.189-.131l-.2-.058v-6.963h24.3v.015Z" transform="translate(-213.652 -478.142)" fill="#fec300"/><path d="M300.253,514.629l-9.575-36.456h-13.3L267.887,514.4h7.6l2.234-8.5h12.65l2.2,8.4h.015a.775.775,0,0,1,.74.581.34.34,0,0,0,.116.261.491.491,0,0,0,.291.087c.2.015.392-.014.595.015h.015a1.206,1.206,0,0,1,.9.682,2.047,2.047,0,0,0,.58.827.985.985,0,0,0,.783.087s.175,3.714.233,4.309.435.522.566.508.479-.058.464-.668-.029-2.727-.1-4,.551-1.335.972-1.567.363,0,.421.2a.512.512,0,0,0,.464.3.32.32,0,0,0,.319-.348c-.029-.218-.058-.247.16-.392C300.267,515.094,300.311,514.905,300.253,514.629Zm-20.9-14.971,3.83-14.58h1.712l3.83,14.58Z" transform="translate(-242.514 -478.158)" fill="#fec300"/><path d="M414.323,541.028v6.847h0a.366.366,0,0,0-.334.218c-.044.087-.073.16-.1.232-.058.16-.174.29-.247.29a.356.356,0,0,1-.392-.247c-.116-.276-.087-.508-.581-.174s-.725.638-.725.972-.044,1.378-.044,1.654a.539.539,0,0,1-.493.479c-.189,0-.523-.044-.523-.479v-1.378s-.711.247-.856-.363c-.1-.45-.552-.87-1.465-1.132a1.629,1.629,0,0,0-.464-.058h-1.045v-6.847l7.268-.014Z" transform="translate(-316.573 -511.607)" fill="#fec300"/><path d="M363.64,491.7V488.3l-3.351-3.177H354.7l-3.221,3.061V504.6l3.163,3.018h5.731l3.09-2.945v-2.916h-.537a2,2,0,0,0-1.523.914.563.563,0,0,1-.711.406s0,.972-.029,1.2a.382.382,0,0,1-.392.334.363.363,0,0,1-.349-.392c0-.29-.043-.929-.029-1.175a1.051,1.051,0,0,0-.392-.841c-.319-.334-.551-.261-.566-.189s.058.16-.073.3a.362.362,0,0,1-.392.116c-.131-.029-.16-.261-.189-.334s-.174-.058-.218-.189a1.6,1.6,0,0,1-.014-.494v-5.9H370.7l.058,12.4-7.253,6.789-12.056-.087-7.253-6.963v-22.6l7.137-6.789h12.346l7.137,6.789v6.63l-7.181.014Z" transform="translate(-283.124 -478.208)" fill="#fec300"/></g><path d="M290,502.59l7.138,7.7-136.7-5.078,3-85.216,144.405,5.339-2.713,76.569-7.109-7.674,2.191-61.206-129.564-4.7-2.626,69.736Z" transform="translate(-160.44 -420)" fill="#fec300"/></g><g transform="translate(258.376 505.647)"><path d="M378.986,638.711c-.071.227-.258.511-.843.273-.024.007-.853-1.265-.847-1.241,0,0-.529-.723-.56-.742-.931-1.062-1.144-.379-1.643-.588l-.051-.2a.967.967,0,0,0-.81-.1c-.513.134-2.73,1.342-2.381,3.47.384,1.466,2.64,1.607,4.863,2.016,4.28.786,6.177,2.743,6.766,4.992a6.654,6.654,0,0,1,.169,1.941l.073-.019.019.073c-.1.21.028.306-.07.332a6.2,6.2,0,0,1-1.145,2.206c-.87,1.168-2.78,1.851-4.246,2.235-.22.058-.448-.013-.668.044a7.451,7.451,0,0,1-1.519.084,10.692,10.692,0,0,1-2.219-.594c-.906-.468-1.035-1.061-1.407-1.382a6.559,6.559,0,0,1-.48-.736.187.187,0,0,1,.01-.159.564.564,0,0,1-.075-.19.378.378,0,0,1,.081-.387c.123-.032.319.021.487.264a.375.375,0,0,0,.207-.106c.285.291.683.813,1.015.883,0,0,.189-.076.169-.149.068.061.02.073.088.134a.65.65,0,0,1,.162-.278c.019.073.019.073.112.128a.074.074,0,0,0,.054-.093l.073-.019-.019-.073.054-.093a.074.074,0,0,0,.093.054l.058.22c.049-.013.154.09.173.163l.038.147a5.4,5.4,0,0,0,2.9.494,4.815,4.815,0,0,0,1.2-.21c2.021-.66,2.951-1.9,2.393-4.021-.576-2.2-2.913-2.946-4.979-3.554a18.5,18.5,0,0,1-5.1-1.9,3.75,3.75,0,0,1-1.4-2.166,5.529,5.529,0,0,1,3.946-5.474,2.682,2.682,0,0,1,.447-.09.074.074,0,0,0,.054-.093,2.606,2.606,0,0,0,.894-.078l.073-.019c.718.047,3.75-.042,4.2,4.15.021.177-.044.43-.215.474A.171.171,0,0,1,378.986,638.711Zm.017-.135c.056.012.08.006.061-.068C379.038,638.41,379.027,638.466,379,638.576Z" transform="translate(-369.777 -619.59)" fill="#fec300"/><path d="M410.1,638.907a.274.274,0,0,1-.152.118,1.608,1.608,0,0,1-.343-.015c-.049.013-.035.166-.1.21-.506-.338-1.049-.117-1.582-.056-.88.126-1.542.2-2.055.33-.294.077-.874.255-1.018.5a4.064,4.064,0,0,0-1.507,3.32,3.333,3.333,0,0,0,.191,1.726c.365,1.393,2.023,5.033,4.981,4.258a1.805,1.805,0,0,0,1.332-.9c.139-.167.722-.633.85-.745.509-.447.671-1.325.789-1.173l.136.121a5.669,5.669,0,0,0,1.031-.452l.051.2c1.1-.288.263.506.581.422.073-.019.148.066.173.164.071.268-.312.6-.438.82a5.255,5.255,0,0,1-3.06,2.474,2.524,2.524,0,0,1-.429.06c-.122.032-.214.082-.336.114a5.88,5.88,0,0,1-5.224-.8l-.315-.2a8.013,8.013,0,0,1-2.677-4.339,4.518,4.518,0,0,1-.123-.569l-.07-.765c.111-1.57.138-2.961.742-3.746l.054-.093a.9.9,0,0,1,.242-.273,6.59,6.59,0,0,1,3.475-2.19,6.2,6.2,0,0,1,1.511-.213c1.066-.018,2.918.672,3.142,1.527l.032.122Z" transform="translate(-386.276 -621.237)" fill="#fec300"/><path d="M425.422,626.18c.013.049-.005.08.008.129.109.415.292.916.407,1.356l.314,1.2c.173.66.327,1.35.392,1.7.071.269.145.354.222.647.108-.185.2-.419.306-.628a5.044,5.044,0,0,1,2.773-2.972,3.476,3.476,0,0,1,2.451-.015c.258.089,1.7.5,1.857,1.106a8.233,8.233,0,0,1,1.326,2.969c.2.782.326,1.743.512,2.452.167.635.4,1.227.573,1.887.083.318.148.667.232.984l.013.049c.09.342-.451.771-.622.816a.092.092,0,0,0-.043-.067c.038.146.027.2-.015.239l.058.22c.064.244.178.58.031.618-.2.051-.261-.3-.407-.259-.048.013-.108.185-.174.228-.118-.151-.782-.291-.833-.487l-.442-1.686a7.618,7.618,0,0,0-.349-1.032l-.083-.318a3.586,3.586,0,0,1-.159-.507c-.192-.733-.354-1.553-.591-2.457-.32-1.222-1.235-3.619-3.236-3.279-.66.173-2.153,1.348-2.013,1.886a4.913,4.913,0,0,0-.3,3.527l.151.874.3.836.153.587a.676.676,0,0,1,.033.226c.1.286.185.6.268.922.013.049-.023.11-.017.135l.158.4c.036.435.224.855.068,1.157l.03.515c-.049.013-.056-.012-.153.014.045.171.109.416.036.539a.09.09,0,0,1-.037-.043c-.04.246-.358.225-.327.347-.025.007-.025.007-.056-.011-.171.045-.15.222-.224.241l-.1.026a.411.411,0,0,1-.135-.017l-.049.013a.516.516,0,0,1-.482-.344l-.145-.354c-.327-1.246-.777-2.565-1.084-3.738-.218-.831-.286-1.492-.452-2.128l-.1-.391c-.122-.464-.227-1.063-.361-1.577-.282-1.076-.589-1.648-1.126-3.7l-.487-1.857c-.173-.66-.443-1.294-.533-1.636-.1-.391-.44-.982.391-1.2.1-.026.518.283.544.38.013.049.332-.426.338-.4C424.756,624.239,425.262,625.569,425.422,626.18Z" transform="translate(-397.992 -614.366)" fill="#fec300"/><path d="M454.726,632.379l-.038-.146c-.019-.073-.069-.165-.088-.238a4.4,4.4,0,0,1-.122-1.561l.066-.644c-.006-.521.1-1.1.124-1.521l.1-.418c-.024.006-.018.031-.042.037a3.034,3.034,0,0,1,.656-1.582,4.975,4.975,0,0,1,1.515-1.494c.031.018.037.042.062.036a1.811,1.811,0,0,0,.639-.35c-.013-.049-.037-.043-.044-.067a1.8,1.8,0,0,1,.883-.518c.073-.019.129-.008.2-.027.146-.038.378-.151.623-.215a3.838,3.838,0,0,1,3.17.736c.661.532,1.155.821,1.644,1.293l.18.188a8.059,8.059,0,0,1,1.708,3.13l.019.073c.238,1.008.429,3.231.068,3.848a5.47,5.47,0,0,1-2.528,3.509l-.146.038a7.267,7.267,0,0,1-1.4.524,4.167,4.167,0,0,1-1.679.074c-1.555.146-4.442-2.1-5.2-3.808A4.364,4.364,0,0,1,454.726,632.379Zm0-4.491c-.036.062-.017.135-.035.166Zm9.2.828c-.211-.807-1.2-2.585-1.963-2.907l-.013-.049a2.653,2.653,0,0,0-2.215-.778,1.083,1.083,0,0,0-.28.125l-.25.144c-1.44.482-3.215,3.48-2.242,7.195a3.994,3.994,0,0,0,.585,1.335,3.261,3.261,0,0,0,3.679,1.779,2.772,2.772,0,0,0,.616-.24C464.24,634.3,464.567,631.159,463.927,628.715Z" transform="translate(-414.839 -613.983)" fill="#fec300"/><path d="M482.15,625.194l-.038-.147c-.019-.073-.069-.165-.088-.238a4.386,4.386,0,0,1-.122-1.561l.066-.644c-.006-.521.1-1.1.124-1.521l.1-.417c-.024.006-.018.03-.042.037a3.032,3.032,0,0,1,.656-1.582,4.963,4.963,0,0,1,1.515-1.493c.031.018.037.042.062.036a1.793,1.793,0,0,0,.639-.35c-.013-.049-.037-.043-.044-.067a1.8,1.8,0,0,1,.883-.518c.073-.019.129-.007.2-.027.146-.039.378-.151.623-.215a3.837,3.837,0,0,1,3.17.736c.661.532,1.155.821,1.644,1.293l.18.188a8.057,8.057,0,0,1,1.708,3.13l.019.073c.238,1.008.429,3.23.068,3.847a5.472,5.472,0,0,1-2.528,3.509l-.146.038a7.289,7.289,0,0,1-1.4.524,4.177,4.177,0,0,1-1.679.074c-1.555.146-4.441-2.1-5.2-3.808A4.371,4.371,0,0,1,482.15,625.194Zm0-4.492c-.036.062-.017.135-.035.166Zm9.2.828c-.211-.807-1.2-2.585-1.963-2.907l-.013-.049a2.655,2.655,0,0,0-2.215-.778,1.107,1.107,0,0,0-.28.125l-.25.144c-1.44.482-3.215,3.48-2.241,7.194a4,4,0,0,0,.585,1.336,3.26,3.26,0,0,0,3.679,1.779,2.771,2.771,0,0,0,.616-.24C491.664,627.115,491.991,623.974,491.351,621.531Z" transform="translate(-429.433 -610.159)" fill="#fec300"/><path d="M509.817,619.154l-.256-.978c-.221-.046-.259-.088-.454-.037a2.4,2.4,0,0,0-.347.169l-.123.032-.048.117c-.026-.1-.076-.19-.1-.287a1.13,1.13,0,0,1-.011-.441,9.624,9.624,0,0,1-.525-.907l-.659-2.517c-.371-1.418-.7-2.688-1.1-3.891l-1.011-3.261c-.108-.312-.261-.9-.446-1.006l-.635-.33-.46-.062c-.253-.168-.64-.747-.909-.676-.342.089-.121.136-.7,0a.054.054,0,0,0,.036-.062c-.293.077-.452.066-.566-.165a.256.256,0,0,1,.066-.148l.1-.234c.172-.541,1.381-.806,1.724-.9.22-.058.453-.066.648-.117l.9-.341a3.24,3.24,0,0,1,.484-.049l.221.047c.588-.05.887.89,1.059,1.55l.218.831c.116.44.322.83.463,1.367.154.587.314,1.2.418,1.693l.567,1.967.147.562c.179.684.451,1.422.611,2.034l.211.806c.128.488.411,1.172.507,1.538l.071.269a2.69,2.69,0,0,1,.14.434.931.931,0,0,0,.046.275c.051.2.182.4.233.592.045.171.054.4.1.575.038.146.095.262.12.36a.447.447,0,0,1-.088.362c-.127.112-.027.294-.007.472a.251.251,0,0,0-.08-.005,3.157,3.157,0,0,1,.048.379l-.049.013c0,.184-.114.265-.228.426A1.939,1.939,0,0,1,509.817,619.154Z" transform="translate(-439.875 -603.069)" fill="#fec300"/></g></g></svg>