<?xml version="1.0" encoding="utf-8"?>
<!-- Generator: Adobe Illustrator 24.1.2, SVG Export Plug-In . SVG Version: 6.00 Build 0)  -->
<svg version="1.1" id="Warstwa_1" xmlns="http://www.w3.org/2000/svg" xmlns:xlink="http://www.w3.org/1999/xlink" x="0px" y="0px"
	 viewBox="0 0 1280 1024" style="enable-background:new 0 0 1280 1024;" xml:space="preserve">
<style type="text/css">
	.st0{fill:none;}
	.st1{fill:#fec300;}
</style>
<g id="Warstwa_1_1_">
	<line class="st0" x1="598.3" y1="343.3" x2="598.3" y2="343.3"/>
	<g>
		<path class="st1" d="M487.1,392.5v48.3h-61.7V643h-49.9V440.9h-6.4c-0.8,0-1.6,0.1-2.4,0.2c-2.8,0.6-5.4,1.3-7.5,2.3
			c-4.3,2.1-5.6,4.8-6.1,7.3c-0.1,0.4-0.2,1.4-0.9,2c-1.2,1-3.1,0.8-4.6,0.4c0,6.4,0.5,23.5,0.7,36c0,3-2.7,4-4.2,4
			c-1.3,0-4-0.7-4.1-3.7c-0.4-13.8-0.5-26.7-0.9-33.1c-1-12.3-7.9-14.5-10.1-13.8c-1.2,0.5,0.1,3.5-2.3,4c-0.9,0.1-1.6,0.2-2.4-0.6
			c-1.4-1.4-1.2-3.3-2-4.2c-0.3-0.5-0.7-0.7-1.3-0.9l-1.4-0.4v-48h167.5V392.5z"/>
		<path class="st1" d="M717.6,643.8l-66-251.3h-91.7l-65.4,249.7h52.4l15.4-58.6h87.2l15.2,57.9h0.1c2.3,0.1,4.6,1.6,5.1,4
			c0.1,0.7,0.2,1.4,0.8,1.8c0.5,0.4,1.3,0.6,2,0.6c1.4,0.1,2.7-0.1,4.1,0.1c0,0,0,0,0.1,0c2.7,0.4,5,2.2,6.2,4.7s2.6,4.9,4,5.7
			c2.5,1.6,5.4,0.6,5.4,0.6s1.2,25.6,1.6,29.7s3,3.6,3.9,3.5c1-0.1,3.3-0.4,3.2-4.6c-0.1-4.2-0.2-18.8-0.7-27.6s3.8-9.2,6.7-10.8
			s2.5,0,2.9,1.4s2.2,2.1,3.2,2.1s2.4-0.9,2.2-2.4s-0.4-1.7,1.1-2.7C717.7,647,718,645.7,717.6,643.8z M573.5,540.6l26.4-100.5h11.8
			l26.4,100.5H573.5z"/>
		<path class="st1" d="M993.4,595.2v47.2l0,0c-1,0-1.9,0.6-2.3,1.5c-0.3,0.6-0.5,1.1-0.7,1.6c-0.4,1.1-1.2,2-1.7,2s-1.9,0.2-2.7-1.7
			s-0.6-3.5-4-1.2s-5,4.4-5,6.7c0,2.2-0.3,9.5-0.3,11.4s-2.1,3.3-3.4,3.3s-3.6-0.3-3.6-3.3s0-9.5,0-9.5s-4.9,1.7-5.9-2.5
			c-0.7-3.1-3.8-6-10.1-7.8c-1-0.3-2.1-0.4-3.2-0.4h-7.2v-47.2L993.4,595.2L993.4,595.2z"/>
		<path class="st1" d="M874.6,485.4V462l-23.1-21.9H813l-22.2,21.1v113.1l21.8,20.8h39.5l21.3-20.3v-20.1h-3.7
			c-5.3,1-9.3,3.4-10.5,6.3c-1.6,4-4.9,2.8-4.9,2.8s0,6.7-0.2,8.3c-0.2,1.7-1.7,2.3-2.7,2.3c-1-0.1-2.4-0.7-2.4-2.7
			s-0.3-6.4-0.2-8.1c0.1-1.7-0.4-3.5-2.7-5.8c-2.2-2.3-3.8-1.8-3.9-1.3c-0.1,0.6,0.4,1.1-0.5,2.1s-1.8,1-2.7,0.8s-1.1-1.8-1.3-2.3
			s-1.2-0.4-1.5-1.3c-0.2-0.6-0.2-1.7-0.1-3.4v-40.7h87.2l0.4,85.5l-50,46.8l-83.1-0.6l-50-48V439.6l49.2-46.8h85.1l49.2,46.8v45.7
			L874.6,485.4L874.6,485.4z"/>
	</g>
</g>
<g id="Warstwa_3">
	<polygon class="st1" points="1041.1,774.2 1090.3,827.3 148,792.3 168.7,204.9 1164.1,241.7 1145.4,769.5 1096.4,716.6 
		1111.5,294.7 218.4,262.3 200.3,743 	"/>
</g>
</svg>
